<?xml version="1.0" encoding="iso-8859-1"?>
<!-- Generator: Adobe Illustrator 25.2.3, SVG Export Plug-In . SVG Version: 6.00 Build 0)  -->
<svg version="1.1" baseProfile="basic" xmlns="http://www.w3.org/2000/svg" xmlns:xlink="http://www.w3.org/1999/xlink" x="0px"
	 y="0px" viewBox="0 0 64 64" xml:space="preserve">
<linearGradient id="SVGID_1_" gradientUnits="userSpaceOnUse" x1="32" y1="755" x2="32" y2="805" gradientTransform="matrix(1 0 0 -1 0 812)">
	<stop  offset="0" style="stop-color:#C822FF"/>
	<stop  offset="1" style="stop-color:#1A6DFF"/>
</linearGradient>
<path style="fill:url(#SVGID_1_);" d="M50.4,57H13.6C9.961,57,7,54.039,7,50.4V13.6C7,9.961,9.961,7,13.6,7h36.8
	c3.639,0,6.6,2.961,6.6,6.6v36.8C57,54.039,54.039,57,50.4,57z M13.6,9C11.063,9,9,11.063,9,13.6v36.8c0,2.537,2.063,4.6,4.6,4.6
	h36.8c2.537,0,4.6-2.063,4.6-4.6V13.6c0-2.537-2.063-4.6-4.6-4.6H13.6z"/>
<linearGradient id="SVGID_2_" gradientUnits="userSpaceOnUse" x1="32" y1="94.7391" x2="32" y2="20.1244">
	<stop  offset="0" style="stop-color:#C822FF"/>
	<stop  offset="1" style="stop-color:#1A6DFF"/>
</linearGradient>
<path style="opacity:0.55;fill:url(#SVGID_2_);" d="M45.5,20h-27c-1.93,0-3.5,1.57-3.5,3.5v16c0,1.93,1.57,3.5,3.5,3.5h10.89
	c-0.35-0.63-0.63-1.3-0.85-2H18.5c-0.83,0-1.5-0.67-1.5-1.5v-16c0-0.83,0.67-1.5,1.5-1.5h27c0.83,0,1.5,0.67,1.5,1.5v5.29
	c0.76,0.66,1.44,1.41,2,2.25V23.5C49,21.57,47.43,20,45.5,20z M49,37.5c0-5.25-4.25-9.5-9.5-9.5c-5.08,0-9.23,3.98-9.49,9h1.73
	c0.5,0,0.58-0.09,0.86-0.91C32.84,35.36,33.3,34,35,34c2.16,0,2.37,2.13,2.5,3.4c0.14,1.44,0.26,1.6,0.5,1.6c0.23,0,0.3,0,0.61-0.85
	C38.88,37.4,39.38,36,41.05,36h2.23c0.34-0.6,0.98-1,1.72-1c1.1,0,2,0.9,2,2s-0.9,2-2,2c-0.74,0-1.38-0.4-1.72-1h-2.23
	c-0.2,0-0.27,0-0.56,0.82C40.22,39.58,39.71,41,38,41c-2.16,0-2.37-2.13-2.5-3.4C35.36,36.16,35.24,36,35,36
	c-0.23,0-0.26,0-0.5,0.72c-0.27,0.8-0.76,2.28-2.76,2.28h-1.62c0.72,4.54,4.64,8,9.38,8C44.75,47,49,42.75,49,37.5z M13.5,53
	c-1.379,0-2.5-1.122-2.5-2.5v-37c0-1.378,1.121-2.5,2.5-2.5h37c1.379,0,2.5,1.122,2.5,2.5v37c0,1.378-1.121,2.5-2.5,2.5H13.5z"/>
</svg>